<svg width="238" height="224" viewBox="0 0 238 224" fill="none" xmlns="http://www.w3.org/2000/svg">
<path fill-rule="evenodd" clip-rule="evenodd" d="M11.4123 223.32H42.8349H82.7457C89.3731 223.32 94.9006 217.863 93.2543 211.444C88.5213 192.988 73.0152 178.85 53.8349 176.129L53.8349 11C53.8349 4.92487 48.9101 0 42.8349 0C36.7598 0 31.8349 4.92486 31.8349 11L31.8349 178.143C16.6667 183.26 4.91538 195.801 0.903723 211.444C-0.7426 217.863 4.7849 223.32 11.4123 223.32ZM64 41V81.9625C64 117.504 82.077 131.626 112.753 113.678C120.186 109.329 128.361 107.681 138 112.5C151.075 119.037 162.814 115.341 175.81 111.248C189.36 106.981 204.277 102.284 223.498 108.31C232.419 111.107 242.173 103.192 235.894 96.2638C226.052 85.404 213.235 84.5333 199.815 83.6217C181.685 82.3903 162.456 81.0841 147.979 54.9727C135.222 31.9631 118.431 18.5845 103.219 10.8057C83.0578 0.49658 64 18.3563 64 41Z" fill="#68BC8D"/>
</svg>
