<svg width="282" height="225" viewBox="0 0 282 225" fill="none" xmlns="http://www.w3.org/2000/svg">
<path d="M131.888 10.6337C136.677 5.04473 145.323 5.04474 150.112 10.6337L246.136 122.692C252.806 130.476 247.275 142.5 237.024 142.5H44.9764C34.725 142.5 29.1938 130.476 35.8643 122.692L131.888 10.6337Z" fill="#68BC8D"/>
<path fill-rule="evenodd" clip-rule="evenodd" d="M59 128C52.3726 128 47 133.373 47 140V213C47 219.627 52.3726 225 59 225H104V213.5C104 193.342 120.342 177 140.5 177C160.658 177 177 193.342 177 213.5V225H223C229.627 225 235 219.627 235 213V140C235 133.373 229.627 128 223 128H59Z" fill="#68BC8D"/>
</svg>
